<?xml version="1.0" encoding="UTF-8" standalone="no"?>
<!DOCTYPE svg PUBLIC "-//W3C//DTD SVG 1.1//EN"
 "http://www.w3.org/Graphics/SVG/1.1/DTD/svg11.dtd">
<!-- Generated by graphviz version 2.38.0 (20140413.2041)
 -->
<!-- Title: %3 Pages: 1 -->
<svg width="830pt" height="476pt"
 viewBox="0.00 0.00 829.72 476.00" xmlns="http://www.w3.org/2000/svg" xmlns:xlink="http://www.w3.org/1999/xlink">
<g id="graph0" class="graph" transform="scale(1 1) rotate(0) translate(4 472)">
<title>%3</title>
<polygon fill="white" stroke="none" points="-4,4 -4,-472 825.72,-472 825.72,4 -4,4"/>
<!-- [root] azurerm_public_ip.myip -->
<g id="node1" class="node"><title>[root] azurerm_public_ip.myip</title>
<polygon fill="none" stroke="black" points="249.592,-324 60.5923,-324 60.5923,-288 249.592,-288 249.592,-324"/>
<text text-anchor="middle" x="155.092" y="-302.3" font-family="Times,serif" font-size="14.00">azurerm_public_ip.myip</text>
</g>
<!-- [root] azurerm_resource_group.thegroup -->
<g id="node2" class="node"><title>[root] azurerm_resource_group.thegroup</title>
<polygon fill="none" stroke="black" points="440.092,-180 174.092,-180 174.092,-144 440.092,-144 440.092,-180"/>
<text text-anchor="middle" x="307.092" y="-158.3" font-family="Times,serif" font-size="14.00">azurerm_resource_group.thegroup</text>
</g>
<!-- [root] azurerm_public_ip.myip&#45;&gt;[root] azurerm_resource_group.thegroup -->
<g id="edge1" class="edge"><title>[root] azurerm_public_ip.myip&#45;&gt;[root] azurerm_resource_group.thegroup</title>
<path fill="none" stroke="black" d="M154.216,-287.871C154.14,-268.275 156.973,-236.285 174.092,-216 185.928,-201.976 201.998,-191.633 218.877,-184.014"/>
<polygon fill="black" stroke="black" points="220.447,-187.15 228.315,-180.055 217.739,-180.695 220.447,-187.15"/>
</g>
<!-- [root] provider.azurerm -->
<g id="node5" class="node"><title>[root] provider.azurerm</title>
<polygon fill="none" stroke="black" points="307.092,-108 178.228,-90 307.092,-72 435.957,-90 307.092,-108"/>
<text text-anchor="middle" x="307.092" y="-86.3" font-family="Times,serif" font-size="14.00">provider.azurerm</text>
</g>
<!-- [root] azurerm_resource_group.thegroup&#45;&gt;[root] provider.azurerm -->
<g id="edge2" class="edge"><title>[root] azurerm_resource_group.thegroup&#45;&gt;[root] provider.azurerm</title>
<path fill="none" stroke="black" d="M307.092,-143.697C307.092,-135.983 307.092,-126.712 307.092,-118.112"/>
<polygon fill="black" stroke="black" points="310.592,-118.104 307.092,-108.104 303.592,-118.104 310.592,-118.104"/>
</g>
<!-- [root] var.location -->
<g id="node6" class="node"><title>[root] var.location</title>
<ellipse fill="none" stroke="black" cx="547.092" cy="-90" rx="93.6835" ry="18"/>
<text text-anchor="middle" x="547.092" y="-86.3" font-family="Times,serif" font-size="14.00">[root] var.location</text>
</g>
<!-- [root] azurerm_resource_group.thegroup&#45;&gt;[root] var.location -->
<g id="edge3" class="edge"><title>[root] azurerm_resource_group.thegroup&#45;&gt;[root] var.location</title>
<path fill="none" stroke="black" d="M365.496,-143.966C402.688,-133.118 450.71,-119.111 488.029,-108.227"/>
<polygon fill="black" stroke="black" points="489.142,-111.548 497.762,-105.388 487.182,-104.828 489.142,-111.548"/>
</g>
<!-- [root] var.rg -->
<g id="node7" class="node"><title>[root] var.rg</title>
<ellipse fill="none" stroke="black" cx="93.0923" cy="-90" rx="66.8882" ry="18"/>
<text text-anchor="middle" x="93.0923" y="-86.3" font-family="Times,serif" font-size="14.00">[root] var.rg</text>
</g>
<!-- [root] azurerm_resource_group.thegroup&#45;&gt;[root] var.rg -->
<g id="edge4" class="edge"><title>[root] azurerm_resource_group.thegroup&#45;&gt;[root] var.rg</title>
<path fill="none" stroke="black" d="M255.016,-143.966C221.122,-132.879 177.14,-118.492 143.57,-107.511"/>
<polygon fill="black" stroke="black" points="144.545,-104.148 133.953,-104.366 142.369,-110.801 144.545,-104.148"/>
</g>
<!-- [root] azurerm_subnet.mysub -->
<g id="node3" class="node"><title>[root] azurerm_subnet.mysub</title>
<polygon fill="none" stroke="black" points="452.592,-324 267.592,-324 267.592,-288 452.592,-288 452.592,-324"/>
<text text-anchor="middle" x="360.092" y="-302.3" font-family="Times,serif" font-size="14.00">azurerm_subnet.mysub</text>
</g>
<!-- [root] azurerm_virtual_network.mynet -->
<g id="node4" class="node"><title>[root] azurerm_virtual_network.mynet</title>
<polygon fill="none" stroke="black" points="431.092,-252 183.092,-252 183.092,-216 431.092,-216 431.092,-252"/>
<text text-anchor="middle" x="307.092" y="-230.3" font-family="Times,serif" font-size="14.00">azurerm_virtual_network.mynet</text>
</g>
<!-- [root] azurerm_subnet.mysub&#45;&gt;[root] azurerm_virtual_network.mynet -->
<g id="edge5" class="edge"><title>[root] azurerm_subnet.mysub&#45;&gt;[root] azurerm_virtual_network.mynet</title>
<path fill="none" stroke="black" d="M346.991,-287.697C340.701,-279.389 333.045,-269.277 326.127,-260.141"/>
<polygon fill="black" stroke="black" points="328.87,-257.964 320.043,-252.104 323.289,-262.19 328.87,-257.964"/>
</g>
<!-- [root] azurerm_virtual_network.mynet&#45;&gt;[root] azurerm_resource_group.thegroup -->
<g id="edge6" class="edge"><title>[root] azurerm_virtual_network.mynet&#45;&gt;[root] azurerm_resource_group.thegroup</title>
<path fill="none" stroke="black" d="M307.092,-215.697C307.092,-207.983 307.092,-198.712 307.092,-190.112"/>
<polygon fill="black" stroke="black" points="310.592,-190.104 307.092,-180.104 303.592,-190.104 310.592,-190.104"/>
</g>
<!-- [root] var.appid -->
<g id="node12" class="node"><title>[root] var.appid</title>
<ellipse fill="none" stroke="black" cx="687.092" cy="-18" rx="82.5854" ry="18"/>
<text text-anchor="middle" x="687.092" y="-14.3" font-family="Times,serif" font-size="14.00">[root] var.appid</text>
</g>
<!-- [root] provider.azurerm&#45;&gt;[root] var.appid -->
<g id="edge16" class="edge"><title>[root] provider.azurerm&#45;&gt;[root] var.appid</title>
<path fill="none" stroke="black" d="M359.648,-79.3402C417.383,-68.7256 512.848,-51.1663 595.092,-36 601.853,-34.7532 608.894,-33.4539 615.937,-32.1537"/>
<polygon fill="black" stroke="black" points="617.026,-35.5118 626.224,-30.2539 615.755,-28.6281 617.026,-35.5118"/>
</g>
<!-- [root] var.password -->
<g id="node14" class="node"><title>[root] var.password</title>
<ellipse fill="none" stroke="black" cx="293.092" cy="-18" rx="100.983" ry="18"/>
<text text-anchor="middle" x="293.092" y="-14.3" font-family="Times,serif" font-size="14.00">[root] var.password</text>
</g>
<!-- [root] provider.azurerm&#45;&gt;[root] var.password -->
<g id="edge17" class="edge"><title>[root] provider.azurerm&#45;&gt;[root] var.password</title>
<path fill="none" stroke="black" d="M303.774,-72.411C302.217,-64.6232 300.319,-55.1354 298.558,-46.329"/>
<polygon fill="black" stroke="black" points="301.975,-45.5662 296.582,-36.4468 295.111,-46.939 301.975,-45.5662"/>
</g>
<!-- [root] var.sub_id -->
<g id="node15" class="node"><title>[root] var.sub_id</title>
<ellipse fill="none" stroke="black" cx="499.092" cy="-18" rx="87.1846" ry="18"/>
<text text-anchor="middle" x="499.092" y="-14.3" font-family="Times,serif" font-size="14.00">[root] var.sub_id</text>
</g>
<!-- [root] provider.azurerm&#45;&gt;[root] var.sub_id -->
<g id="edge18" class="edge"><title>[root] provider.azurerm&#45;&gt;[root] var.sub_id</title>
<path fill="none" stroke="black" d="M340.976,-76.6465C370.763,-65.7868 414.532,-49.8294 448.472,-37.4554"/>
<polygon fill="black" stroke="black" points="450.016,-40.6177 458.212,-33.9041 447.619,-34.0412 450.016,-40.6177"/>
</g>
<!-- [root] var.tenant -->
<g id="node16" class="node"><title>[root] var.tenant</title>
<ellipse fill="none" stroke="black" cx="87.0923" cy="-18" rx="87.1846" ry="18"/>
<text text-anchor="middle" x="87.0923" y="-14.3" font-family="Times,serif" font-size="14.00">[root] var.tenant</text>
</g>
<!-- [root] provider.azurerm&#45;&gt;[root] var.tenant -->
<g id="edge19" class="edge"><title>[root] provider.azurerm&#45;&gt;[root] var.tenant</title>
<path fill="none" stroke="black" d="M269.772,-77.1255C234.777,-65.9906 182.017,-49.2034 142.181,-36.5281"/>
<polygon fill="black" stroke="black" points="143.198,-33.179 132.608,-33.4821 141.076,-39.8495 143.198,-33.179"/>
</g>
<!-- [root] meta.count&#45;boundary (count boundary fixup) -->
<g id="node8" class="node"><title>[root] meta.count&#45;boundary (count boundary fixup)</title>
<ellipse fill="none" stroke="black" cx="574.092" cy="-378" rx="247.756" ry="18"/>
<text text-anchor="middle" x="574.092" y="-374.3" font-family="Times,serif" font-size="14.00">[root] meta.count&#45;boundary (count boundary fixup)</text>
</g>
<!-- [root] meta.count&#45;boundary (count boundary fixup)&#45;&gt;[root] azurerm_public_ip.myip -->
<g id="edge7" class="edge"><title>[root] meta.count&#45;boundary (count boundary fixup)&#45;&gt;[root] azurerm_public_ip.myip</title>
<path fill="none" stroke="black" d="M480.321,-361.334C414.926,-350.409 327.609,-335.821 259.914,-324.512"/>
<polygon fill="black" stroke="black" points="260.09,-320.993 249.65,-322.797 258.937,-327.897 260.09,-320.993"/>
</g>
<!-- [root] meta.count&#45;boundary (count boundary fixup)&#45;&gt;[root] azurerm_subnet.mysub -->
<g id="edge8" class="edge"><title>[root] meta.count&#45;boundary (count boundary fixup)&#45;&gt;[root] azurerm_subnet.mysub</title>
<path fill="none" stroke="black" d="M523.106,-360.322C492.744,-350.391 454.002,-337.718 421.906,-327.219"/>
<polygon fill="black" stroke="black" points="422.767,-323.819 412.175,-324.036 420.591,-330.472 422.767,-323.819"/>
</g>
<!-- [root] output.dood -->
<g id="node9" class="node"><title>[root] output.dood</title>
<ellipse fill="none" stroke="black" cx="545.092" cy="-234" rx="95.5831" ry="18"/>
<text text-anchor="middle" x="545.092" y="-230.3" font-family="Times,serif" font-size="14.00">[root] output.dood</text>
</g>
<!-- [root] meta.count&#45;boundary (count boundary fixup)&#45;&gt;[root] output.dood -->
<g id="edge9" class="edge"><title>[root] meta.count&#45;boundary (count boundary fixup)&#45;&gt;[root] output.dood</title>
<path fill="none" stroke="black" d="M545.832,-359.971C533.66,-350.957 520.72,-338.697 514.092,-324 504.756,-303.297 514.658,-278.879 525.68,-260.862"/>
<polygon fill="black" stroke="black" points="528.886,-262.357 531.451,-252.077 523.035,-258.514 528.886,-262.357"/>
</g>
<!-- [root] output.more -->
<g id="node10" class="node"><title>[root] output.more</title>
<ellipse fill="none" stroke="black" cx="687.092" cy="-162" rx="96.6831" ry="18"/>
<text text-anchor="middle" x="687.092" y="-158.3" font-family="Times,serif" font-size="14.00">[root] output.more</text>
</g>
<!-- [root] meta.count&#45;boundary (count boundary fixup)&#45;&gt;[root] output.more -->
<g id="edge10" class="edge"><title>[root] meta.count&#45;boundary (count boundary fixup)&#45;&gt;[root] output.more</title>
<path fill="none" stroke="black" d="M622.735,-360.287C639.755,-352.006 657.294,-340.218 668.092,-324 694.977,-283.624 694.274,-224.641 690.944,-190.404"/>
<polygon fill="black" stroke="black" points="694.394,-189.761 689.802,-180.213 687.437,-190.541 694.394,-189.761"/>
</g>
<!-- [root] var.yo -->
<g id="node11" class="node"><title>[root] var.yo</title>
<ellipse fill="none" stroke="black" cx="591.092" cy="-306" rx="67.6881" ry="18"/>
<text text-anchor="middle" x="591.092" y="-302.3" font-family="Times,serif" font-size="14.00">[root] var.yo</text>
</g>
<!-- [root] meta.count&#45;boundary (count boundary fixup)&#45;&gt;[root] var.yo -->
<g id="edge11" class="edge"><title>[root] meta.count&#45;boundary (count boundary fixup)&#45;&gt;[root] var.yo</title>
<path fill="none" stroke="black" d="M578.295,-359.697C580.188,-351.898 582.469,-342.509 584.577,-333.829"/>
<polygon fill="black" stroke="black" points="587.979,-334.648 586.938,-324.104 581.177,-332.996 587.979,-334.648"/>
</g>
<!-- [root] output.dood&#45;&gt;[root] azurerm_resource_group.thegroup -->
<g id="edge12" class="edge"><title>[root] output.dood&#45;&gt;[root] azurerm_resource_group.thegroup</title>
<path fill="none" stroke="black" d="M495.779,-218.496C460.759,-208.196 413.307,-194.24 374.752,-182.9"/>
<polygon fill="black" stroke="black" points="375.736,-179.541 365.154,-180.077 373.76,-186.257 375.736,-179.541"/>
</g>
<!-- [root] output.more&#45;&gt;[root] var.appid -->
<g id="edge13" class="edge"><title>[root] output.more&#45;&gt;[root] var.appid</title>
<path fill="none" stroke="black" d="M687.092,-143.871C687.092,-119.67 687.092,-75.2108 687.092,-46.3932"/>
<polygon fill="black" stroke="black" points="690.592,-46.1892 687.092,-36.1893 683.592,-46.1893 690.592,-46.1892"/>
</g>
<!-- [root] provider.azurerm (close) -->
<g id="node13" class="node"><title>[root] provider.azurerm (close)</title>
<ellipse fill="none" stroke="black" cx="155.092" cy="-378" rx="153.273" ry="18"/>
<text text-anchor="middle" x="155.092" y="-374.3" font-family="Times,serif" font-size="14.00">[root] provider.azurerm (close)</text>
</g>
<!-- [root] provider.azurerm (close)&#45;&gt;[root] azurerm_public_ip.myip -->
<g id="edge14" class="edge"><title>[root] provider.azurerm (close)&#45;&gt;[root] azurerm_public_ip.myip</title>
<path fill="none" stroke="black" d="M155.092,-359.697C155.092,-351.983 155.092,-342.712 155.092,-334.112"/>
<polygon fill="black" stroke="black" points="158.592,-334.104 155.092,-324.104 151.592,-334.104 158.592,-334.104"/>
</g>
<!-- [root] provider.azurerm (close)&#45;&gt;[root] azurerm_subnet.mysub -->
<g id="edge15" class="edge"><title>[root] provider.azurerm (close)&#45;&gt;[root] azurerm_subnet.mysub</title>
<path fill="none" stroke="black" d="M202.381,-360.853C231.635,-350.863 269.443,-337.954 300.706,-327.278"/>
<polygon fill="black" stroke="black" points="301.849,-330.586 310.182,-324.043 299.587,-323.962 301.849,-330.586"/>
</g>
<!-- [root] root -->
<g id="node17" class="node"><title>[root] root</title>
<ellipse fill="none" stroke="black" cx="364.092" cy="-450" rx="58.4896" ry="18"/>
<text text-anchor="middle" x="364.092" y="-446.3" font-family="Times,serif" font-size="14.00">[root] root</text>
</g>
<!-- [root] root&#45;&gt;[root] meta.count&#45;boundary (count boundary fixup) -->
<g id="edge20" class="edge"><title>[root] root&#45;&gt;[root] meta.count&#45;boundary (count boundary fixup)</title>
<path fill="none" stroke="black" d="M402.61,-436.161C433.781,-425.771 478.231,-410.954 514.065,-399.009"/>
<polygon fill="black" stroke="black" points="515.545,-402.205 523.925,-395.722 513.332,-395.564 515.545,-402.205"/>
</g>
<!-- [root] root&#45;&gt;[root] provider.azurerm (close) -->
<g id="edge21" class="edge"><title>[root] root&#45;&gt;[root] provider.azurerm (close)</title>
<path fill="none" stroke="black" d="M325.758,-436.161C294.305,-425.626 249.266,-410.541 213.353,-398.513"/>
<polygon fill="black" stroke="black" points="214.078,-395.065 203.484,-395.208 211.855,-401.703 214.078,-395.065"/>
</g>
</g>
</svg>
